<svg xmlns="http://www.w3.org/2000/svg" xmlns:xlink="http://www.w3.org/1999/xlink" viewBox="0 0 88.87 120"><defs><style>.cls-1{fill:none;}.cls-2{clip-path:url(#clip-path);}.cls-3{fill:#045866;}.cls-4{fill:#a54724;}</style><clipPath id="clip-path" transform="translate(-30.57 -30)"><rect class="cls-1" width="150" height="180"/></clipPath></defs><title>Asset 22</title><g id="Layer_2" data-name="Layer 2"><g id="Layer_2-2" data-name="Layer 2"><g class="cls-2"><path class="cls-3" d="M72.07,73.29H66.94c-3.34,0-4.65-.12-6.08-1.07s-2.33-2.15-6.68-9.48c-2.86-5-4.35-7.34-6-7.34-.6,0-1,.3-1.79,1l-1.14,1.07a1.57,1.57,0,0,0-.53,1.31v2.51c0,3.69.24,5.9,1.07,7.21,1.07,1.79,3.16,1.61,3.16,3.28,0,1-1,1.55-2.26,1.55H32.83c-1.31,0-2.26-.54-2.26-1.55,0-1.73,2.32-1.49,3.34-3.58.65-1.31.89-3,.89-6.91V38.47c0-2.15-.12-3.4-1.67-4.36-1.07-.65-2.21-.77-2.21-2,0-.72.66-1.37,2-1.37h13.6c1.37,0,2,.65,2,1.37,0,1.19-1.07,1.37-2.14,2-1.61,1-1.73,2.39-1.73,4.71V50.21c0,.3.12.42.3.42a.59.59,0,0,0,.41-.24l9.13-9.6c2.62-2.74,4.05-4.53,4.05-5.84s-1.73-1.43-1.73-2.8c0-1,.78-1.43,2-1.43H71.35c1.25,0,1.91.59,1.91,1.37,0,1.31-1.67,1.55-3.28,2.38-2,1-4.59,2.63-10,8.05l-6.14,6.26c-.12.12-.12.18-.12.24a.26.26,0,0,0,.24.24c.36,0,.66-.3,1.43-.3,2.63,0,4.89,4.3,8.05,9.36,5.25,8.41,7,10.38,8.23,11.33S74,70.73,74,71.92C74,72.69,73.32,73.29,72.07,73.29Z" transform="translate(-30.57 -30)"/><path class="cls-3" d="M119.43,53.79c0,1.19-1.07,1.31-2.14,2-1.67,1.13-1.67,2.62-1.67,5.31v5.66a3,3,0,0,1-1.43,2.74A22.53,22.53,0,0,1,100.83,74C87.41,74,79,65.18,79,52.48S88.61,30,102.26,30c3.58,0,8.41.66,11,2.38,1.85,1.26,2.33,3.28,2.33,5.67v.48c0,2-.06,4.83-2.69,4.83-2.44,0-3.16-2.69-5.06-5A8.39,8.39,0,0,0,101,35.13c-8.11,0-11.15,7.81-11.15,15.62,0,6.86,3,18,11.81,18a10,10,0,0,0,2.62-.36,1.93,1.93,0,0,0,1.49-2.21V61.9c0-3.34-.3-5.07-3-6.08-1.19-.48-2.57-.72-2.57-1.91,0-.89.66-1.49,2.15-1.49h15.15C118.78,52.42,119.43,53.08,119.43,53.79Z" transform="translate(-30.57 -30)"/><path class="cls-3" d="M73.32,126.82c0,1.13-1.13,1.43-2,1.43h-6c-2.33,0-3.82-.36-5-2.09-1-1.31-2.21-4.23-4.11-8.76-2-4.71-4.59-8.41-9.19-8.41a5.44,5.44,0,0,0-1,.06.83.83,0,0,0-.72,1v6.21c0,4.11.3,5.42.6,6.2A4.6,4.6,0,0,0,48.16,125c.83.48,1.43.84,1.43,1.73s-1,1.55-2.27,1.55H33.55c-1.31,0-2.33-.54-2.33-1.55s.66-1.25,1.49-1.73a4.76,4.76,0,0,0,2.21-2.56c.3-.84.54-2.09.54-6.2V93.43c0-2.09-.12-3.46-1.67-4.35-1.08-.66-2.15-.84-2.15-2,0-.72.66-1.37,2-1.37H45.77c1.61,0,3.34-.06,5.07-.06,4.53,0,9.3.35,12.52,2.8a9.87,9.87,0,0,1,2.86,11.69c-1.61,3.39-5.12,5.24-8.82,5.66-.36.06-.66.12-.66.36s.12.36.6.42c5,.65,7,4,9.78,10.61,2.5,5.84,3.16,6.62,4.23,7.51C72.07,125.27,73.32,125.69,73.32,126.82Zm-17-29.7c0-5.9-4.6-6.55-7.4-6.55H46.25a.79.79,0,0,0-.9.89v11.87a.63.63,0,0,0,.72.71h2.68C52.63,104,56.33,102.25,56.33,97.12Z" transform="translate(-30.57 -30)"/><path class="cls-3" d="M116.12,117a12.56,12.56,0,0,1-.47,2.45c-1.08,3.87.06,9.3-4.65,9.3-2.27,0-4.89-.48-11.21-.48H84.58c-1.31,0-2.26-.54-2.26-1.55s.65-1.37,1.55-1.85A4.36,4.36,0,0,0,86,122.41c.3-.84.6-2.09.6-6.26V93.79c0-2.33-.12-3.76-1.67-4.71-1.07-.66-2.21-.84-2.21-2,0-.72.66-1.37,2-1.37H98.36c1.37,0,2,.65,2,1.37,0,1.19-1.07,1.37-2.14,2-1.61,1-1.73,2.44-1.73,4.77v22.83c0,3.58,0,5.61,1.31,6.32a4.34,4.34,0,0,0,1.91.36,15,15,0,0,0,3.69-.54c3.46-.95,5.31-2.68,7.34-5.72,1-1.43,1.73-2.21,2.86-2.21A2.31,2.31,0,0,1,116.12,117Z" transform="translate(-30.57 -30)"/><path class="cls-4" d="M55.11,144.28q0-.9.66-.9H94.23q.66,0,.66.9v4.83c0,.59-.22.89-.66.89H55.77c-.44,0-.66-.24-.66-.89Z" transform="translate(-30.57 -30)"/></g></g></g></svg>